<svg xmlns="http://www.w3.org/2000/svg" xmlns:xlink="http://www.w3.org/1999/xlink" width="500" zoomAndPan="magnify" viewBox="0 0 375 374.999991" height="500" preserveAspectRatio="xMidYMid meet" version="1.0"><defs><g/><clipPath id="7af6717445"><path d="M 134.667969 80.355469 L 239.667969 80.355469 L 239.667969 211.605469 L 134.667969 211.605469 Z M 134.667969 80.355469 " clip-rule="nonzero"/></clipPath></defs><rect x="-37.5" width="450" fill="#ffffff" y="-37.499999" height="449.999989" fill-opacity="1"/><rect x="-37.5" width="450" fill="#ffffff" y="-37.499999" height="449.999989" fill-opacity="1"/><g clip-path="url(#7af6717445)"><path fill="#004aad" d="M 121.527344 80.355469 L 252.777344 80.355469 L 252.777344 211.605469 L 121.527344 211.605469 Z M 121.527344 80.355469 " fill-opacity="1" fill-rule="nonzero"/></g><g fill="#ffffff" fill-opacity="1"><g transform="translate(143.706163, 167.329069)"><g><path d="M 40.359375 -0.734375 C 41.640625 -0.734375 42.734375 -1.175781 43.640625 -2.0625 C 44.546875 -2.945312 45.023438 -4.03125 45.078125 -5.3125 L 45.078125 -24.421875 L 14.90625 -24.421875 L 14.90625 -5.390625 C 14.90625 -4.109375 15.367188 -3.007812 16.296875 -2.09375 C 17.234375 -1.1875 18.34375 -0.734375 19.625 -0.734375 L 20.578125 -0.734375 L 20.578125 0 L 4.421875 0 L 4.421875 -0.734375 L 5.390625 -0.734375 C 6.660156 -0.734375 7.75 -1.1875 8.65625 -2.09375 C 9.570312 -3.007812 10.054688 -4.109375 10.109375 -5.390625 L 10.109375 -46.328125 C 10.054688 -47.609375 9.570312 -48.691406 8.65625 -49.578125 C 7.75 -50.460938 6.660156 -50.90625 5.390625 -50.90625 L 4.421875 -50.90625 L 4.421875 -51.640625 L 20.578125 -51.640625 L 20.578125 -50.90625 L 19.625 -50.90625 C 18.34375 -50.90625 17.25 -50.460938 16.34375 -49.578125 C 15.4375 -48.691406 14.957031 -47.609375 14.90625 -46.328125 L 14.90625 -26.640625 L 45.078125 -26.640625 L 45.078125 -46.328125 C 45.023438 -48.097656 44.238281 -49.425781 42.71875 -50.3125 C 41.976562 -50.707031 41.191406 -50.90625 40.359375 -50.90625 L 39.40625 -50.90625 L 39.40625 -51.640625 L 55.5625 -51.640625 L 55.5625 -50.90625 L 54.59375 -50.90625 C 53.320312 -50.90625 52.226562 -50.445312 51.3125 -49.53125 C 50.40625 -48.625 49.925781 -47.535156 49.875 -46.265625 L 49.875 -5.390625 C 49.925781 -4.109375 50.40625 -3.007812 51.3125 -2.09375 C 52.226562 -1.1875 53.320312 -0.734375 54.59375 -0.734375 L 55.5625 -0.734375 L 55.5625 0 L 39.40625 0 L 39.40625 -0.734375 Z M 40.359375 -0.734375 "/></g></g></g><g fill="#ffffff" fill-opacity="1"><g transform="translate(195.564929, 167.329069)"><g><path d="M 4.5 -3.03125 C 4.351562 -3.71875 4.28125 -5.039062 4.28125 -7 C 4.28125 -8.96875 4.648438 -11.0625 5.390625 -13.28125 L 6.046875 -13.28125 C 5.992188 -12.738281 5.96875 -12.195312 5.96875 -11.65625 C 5.96875 -8.65625 6.878906 -6.160156 8.703125 -4.171875 C 10.523438 -2.179688 12.9375 -1.1875 15.9375 -1.1875 C 19.03125 -1.1875 21.570312 -2.117188 23.5625 -3.984375 C 25.5625 -5.847656 26.5625 -8.191406 26.5625 -11.015625 C 26.5625 -13.847656 25.601562 -16.148438 23.6875 -17.921875 L 9.515625 -31.0625 C 6.859375 -33.519531 5.53125 -36.492188 5.53125 -39.984375 C 5.53125 -43.484375 6.695312 -46.472656 9.03125 -48.953125 C 11.375 -51.441406 14.535156 -52.6875 18.515625 -52.6875 C 20.390625 -52.6875 22.503906 -52.4375 24.859375 -51.9375 L 27.734375 -51.9375 L 27.734375 -42.859375 L 27.078125 -42.859375 C 27.078125 -45.171875 26.273438 -47.015625 24.671875 -48.390625 C 23.078125 -49.773438 21.023438 -50.46875 18.515625 -50.46875 C 16.003906 -50.46875 13.898438 -49.628906 12.203125 -47.953125 C 10.515625 -46.285156 9.671875 -44.195312 9.671875 -41.6875 C 9.671875 -39.175781 10.648438 -37.007812 12.609375 -35.1875 L 27.15625 -21.765625 C 29.613281 -19.503906 30.84375 -16.40625 30.84375 -12.46875 C 30.84375 -8.53125 29.585938 -5.296875 27.078125 -2.765625 C 24.566406 -0.234375 21.222656 1.03125 17.046875 1.03125 C 14.878906 1.03125 12.578125 0.695312 10.140625 0.03125 C 7.710938 -0.625 5.832031 -1.644531 4.5 -3.03125 Z M 4.5 -3.03125 "/></g></g></g><g fill="#004aad" fill-opacity="1"><g transform="translate(3.410161, 246.267361)"><g><path d="M 20.171875 -0.375 C 20.816406 -0.375 21.363281 -0.59375 21.8125 -1.03125 C 22.269531 -1.476562 22.515625 -2.019531 22.546875 -2.65625 L 22.546875 -12.203125 L 7.453125 -12.203125 L 7.453125 -2.6875 C 7.453125 -2.050781 7.6875 -1.503906 8.15625 -1.046875 C 8.625 -0.597656 9.175781 -0.375 9.8125 -0.375 L 10.296875 -0.375 L 10.296875 0 L 2.21875 0 L 2.21875 -0.375 L 2.6875 -0.375 C 3.332031 -0.375 3.878906 -0.597656 4.328125 -1.046875 C 4.785156 -1.503906 5.023438 -2.050781 5.046875 -2.6875 L 5.046875 -23.171875 C 5.023438 -23.804688 4.785156 -24.34375 4.328125 -24.78125 C 3.878906 -25.226562 3.332031 -25.453125 2.6875 -25.453125 L 2.21875 -25.453125 L 2.21875 -25.828125 L 10.296875 -25.828125 L 10.296875 -25.453125 L 9.8125 -25.453125 C 9.175781 -25.453125 8.628906 -25.226562 8.171875 -24.78125 C 7.710938 -24.34375 7.472656 -23.804688 7.453125 -23.171875 L 7.453125 -13.3125 L 22.546875 -13.3125 L 22.546875 -23.171875 C 22.515625 -24.054688 22.117188 -24.71875 21.359375 -25.15625 C 20.992188 -25.351562 20.597656 -25.453125 20.171875 -25.453125 L 19.703125 -25.453125 L 19.703125 -25.828125 L 27.78125 -25.828125 L 27.78125 -25.453125 L 27.296875 -25.453125 C 26.660156 -25.453125 26.113281 -25.222656 25.65625 -24.765625 C 25.195312 -24.316406 24.957031 -23.769531 24.9375 -23.125 L 24.9375 -2.6875 C 24.957031 -2.050781 25.195312 -1.503906 25.65625 -1.046875 C 26.113281 -0.597656 26.660156 -0.375 27.296875 -0.375 L 27.78125 -0.375 L 27.78125 0 L 19.703125 0 L 19.703125 -0.375 Z M 20.171875 -0.375 "/></g></g></g><g fill="#004aad" fill-opacity="1"><g transform="translate(33.392741, 246.267361)"><g><path d="M 2.546875 -0.375 C 3.140625 -0.375 3.632812 -0.5625 4.03125 -0.9375 C 4.4375 -1.320312 4.65625 -1.785156 4.6875 -2.328125 L 4.6875 -19.84375 C 4.6875 -20.382812 4.476562 -20.835938 4.0625 -21.203125 C 3.644531 -21.578125 3.140625 -21.765625 2.546875 -21.765625 L 2.03125 -21.765625 L 2.03125 -22.140625 L 12.796875 -22.140625 C 13.804688 -22.140625 14.691406 -22.210938 15.453125 -22.359375 C 16.210938 -22.503906 16.707031 -22.625 16.9375 -22.71875 L 16.9375 -18.515625 L 16.53125 -18.5625 L 16.53125 -19.109375 C 16.53125 -19.628906 16.359375 -20.070312 16.015625 -20.4375 C 15.671875 -20.800781 15.226562 -20.984375 14.6875 -20.984375 L 7.015625 -20.984375 L 7.015625 -11.625 L 13.3125 -11.625 C 13.8125 -11.625 14.1875 -11.769531 14.4375 -12.0625 C 14.695312 -12.351562 14.828125 -12.722656 14.828125 -13.171875 L 14.828125 -13.65625 L 15.234375 -13.65625 L 15.234375 -8.484375 L 14.828125 -8.484375 L 14.828125 -8.96875 C 14.828125 -9.65625 14.570312 -10.117188 14.0625 -10.359375 C 13.863281 -10.441406 13.648438 -10.492188 13.421875 -10.515625 L 7.015625 -10.515625 L 7.015625 -1.140625 L 12.796875 -1.140625 C 13.929688 -1.140625 14.882812 -1.335938 15.65625 -1.734375 C 16.4375 -2.128906 17.03125 -2.597656 17.4375 -3.140625 C 17.84375 -3.679688 18.253906 -4.394531 18.671875 -5.28125 L 19.03125 -5.28125 L 17 0 L 2.03125 0 L 2.03125 -0.375 Z M 2.546875 -0.375 "/></g></g></g><g fill="#004aad" fill-opacity="1"><g transform="translate(53.528642, 246.267361)"><g><path d="M 26.8125 -21.765625 C 26.269531 -21.765625 25.800781 -21.585938 25.40625 -21.234375 C 25.019531 -20.878906 24.816406 -20.441406 24.796875 -19.921875 L 24.796875 -4.203125 C 24.796875 -2.773438 24.878906 -1.421875 25.046875 -0.140625 L 25.125 0.515625 L 24.796875 0.515625 L 5.609375 -17.671875 L 5.609375 -2.28125 C 5.609375 -1.738281 5.800781 -1.285156 6.1875 -0.921875 C 6.582031 -0.554688 7.066406 -0.375 7.640625 -0.375 L 8.265625 -0.375 L 8.265625 0 L 1.296875 0 L 1.296875 -0.375 L 1.921875 -0.375 C 2.484375 -0.375 2.960938 -0.554688 3.359375 -0.921875 C 3.753906 -1.285156 3.953125 -1.738281 3.953125 -2.28125 L 3.953125 -18.078125 C 3.953125 -19.578125 3.863281 -20.914062 3.6875 -22.09375 L 3.609375 -22.6875 L 4.015625 -22.65625 L 23.171875 -4.609375 L 23.171875 -19.921875 C 23.117188 -20.441406 22.894531 -20.878906 22.5 -21.234375 C 22.101562 -21.585938 21.632812 -21.765625 21.09375 -21.765625 L 20.46875 -21.765625 L 20.46875 -22.140625 L 27.453125 -22.140625 L 27.453125 -21.765625 Z M 26.8125 -21.765625 "/></g></g></g><g fill="#004aad" fill-opacity="1"><g transform="translate(82.257339, 246.267361)"><g><path d="M 8.921875 -20.984375 L 6.96875 -20.984375 L 6.96875 -2.359375 C 7 -1.597656 7.34375 -1.019531 8 -0.625 C 8.320312 -0.457031 8.679688 -0.375 9.078125 -0.375 L 9.546875 -0.375 L 9.59375 0 L 2.03125 0 L 2.03125 -0.375 L 2.546875 -0.375 C 3.109375 -0.375 3.59375 -0.5625 4 -0.9375 C 4.40625 -1.320312 4.609375 -1.785156 4.609375 -2.328125 L 4.609375 -19.84375 C 4.609375 -20.382812 4.40625 -20.835938 4 -21.203125 C 3.59375 -21.578125 3.109375 -21.765625 2.546875 -21.765625 L 2.03125 -21.765625 L 2.03125 -22.140625 L 11.28125 -22.140625 C 13.59375 -22.140625 15.421875 -21.609375 16.765625 -20.546875 C 18.109375 -19.492188 18.78125 -18.101562 18.78125 -16.375 C 18.78125 -14.65625 18.238281 -13.21875 17.15625 -12.0625 C 16.070312 -10.90625 14.691406 -10.242188 13.015625 -10.078125 C 13.804688 -9.722656 14.753906 -8.757812 15.859375 -7.1875 C 15.835938 -7.1875 16.257812 -6.644531 17.125 -5.5625 C 18 -4.488281 18.703125 -3.648438 19.234375 -3.046875 C 19.765625 -2.441406 20.203125 -1.976562 20.546875 -1.65625 C 21.453125 -0.800781 22.5 -0.375 23.6875 -0.375 L 23.6875 0 L 22.546875 0 C 20.597656 0 19.070312 -0.378906 17.96875 -1.140625 C 17.132812 -1.703125 16.367188 -2.40625 15.671875 -3.25 C 15.523438 -3.445312 14.90625 -4.3125 13.8125 -5.84375 C 12.71875 -7.382812 12.132812 -8.203125 12.0625 -8.296875 C 10.738281 -9.941406 9.5 -10.765625 8.34375 -10.765625 L 8.34375 -11.140625 C 11.21875 -11.140625 12.945312 -11.285156 13.53125 -11.578125 C 14.34375 -11.992188 14.898438 -12.4375 15.203125 -12.90625 C 15.816406 -13.894531 16.125 -14.976562 16.125 -16.15625 C 16.125 -17.65625 15.679688 -18.8125 14.796875 -19.625 C 13.910156 -20.4375 12.71875 -20.878906 11.21875 -20.953125 C 10.550781 -20.972656 9.785156 -20.984375 8.921875 -20.984375 Z M 8.921875 -20.984375 "/></g></g></g><g fill="#004aad" fill-opacity="1"><g transform="translate(105.380434, 246.267361)"><g><path d="M 23.796875 -21.765625 L 23.359375 -21.765625 C 22.691406 -21.765625 22.054688 -21.585938 21.453125 -21.234375 C 20.847656 -20.878906 20.347656 -20.429688 19.953125 -19.890625 L 12.875 -9.15625 L 12.875 -2.359375 C 12.875 -1.816406 13.082031 -1.347656 13.5 -0.953125 C 13.914062 -0.566406 14.421875 -0.375 15.015625 -0.375 L 15.453125 -0.375 L 15.453125 0 L 7.890625 0 L 7.890625 -0.375 L 8.34375 -0.375 C 8.925781 -0.375 9.425781 -0.566406 9.84375 -0.953125 C 10.269531 -1.347656 10.484375 -1.816406 10.484375 -2.359375 L 10.484375 -9.1875 L 3.65625 -19.921875 C 2.8125 -21.148438 1.679688 -21.765625 0.265625 -21.765625 L -0.1875 -21.765625 L -0.1875 -22.140625 L 8.375 -22.140625 L 8.375 -21.765625 L 7.9375 -21.765625 C 7.46875 -21.765625 7.128906 -21.613281 6.921875 -21.3125 C 6.710938 -21.019531 6.609375 -20.769531 6.609375 -20.5625 C 6.609375 -20.351562 6.628906 -20.164062 6.671875 -20 L 12.0625 -10.4375 L 17.78125 -19.953125 C 17.851562 -20.148438 17.890625 -20.351562 17.890625 -20.5625 C 17.890625 -20.769531 17.785156 -21.019531 17.578125 -21.3125 C 17.367188 -21.613281 17.019531 -21.765625 16.53125 -21.765625 L 16.078125 -21.765625 L 16.078125 -22.140625 L 23.796875 -22.140625 Z M 23.796875 -21.765625 "/></g></g></g><g fill="#004aad" fill-opacity="1"><g transform="translate(128.982956, 246.267361)"><g><path d="M 1.296875 -18.625 C 1.734375 -20.71875 1.953125 -22.25 1.953125 -23.21875 C 1.953125 -24.195312 1.925781 -25.066406 1.875 -25.828125 L 4.46875 -26.34375 C 4.46875 -26.21875 4.46875 -25.957031 4.46875 -25.5625 C 4.46875 -25.164062 4.398438 -24.519531 4.265625 -23.625 C 4.128906 -22.726562 3.832031 -21.738281 3.375 -20.65625 C 2.914062 -19.570312 2.332031 -18.832031 1.625 -18.4375 Z M 1.296875 -18.625 "/></g></g></g><g fill="#004aad" fill-opacity="1"><g transform="translate(135.252372, 246.267361)"><g><path d="M 2.140625 -1.21875 C 2.066406 -1.507812 2.03125 -2.109375 2.03125 -3.015625 C 2.03125 -3.929688 2.191406 -4.859375 2.515625 -5.796875 L 2.953125 -5.796875 C 2.929688 -5.566406 2.921875 -5.34375 2.921875 -5.125 C 2.921875 -3.800781 3.351562 -2.710938 4.21875 -1.859375 C 5.09375 -1.015625 6.304688 -0.59375 7.859375 -0.59375 C 9.484375 -0.59375 10.75 -0.96875 11.65625 -1.71875 C 12.5625 -2.46875 13.015625 -3.4375 13.015625 -4.625 C 13.015625 -5.820312 12.570312 -6.8125 11.6875 -7.59375 L 4.3125 -13.28125 C 3.132812 -14.289062 2.546875 -15.644531 2.546875 -17.34375 C 2.546875 -18.300781 2.804688 -19.1875 3.328125 -20 C 3.859375 -20.8125 4.597656 -21.457031 5.546875 -21.9375 C 6.492188 -22.414062 7.609375 -22.65625 8.890625 -22.65625 C 10.171875 -22.65625 11.300781 -22.539062 12.28125 -22.3125 L 13.5 -22.3125 L 13.578125 -18.296875 L 13.171875 -18.296875 C 13.171875 -19.328125 12.8125 -20.125 12.09375 -20.6875 C 11.382812 -21.257812 10.363281 -21.546875 9.03125 -21.546875 C 7.707031 -21.546875 6.613281 -21.207031 5.75 -20.53125 C 4.894531 -19.851562 4.46875 -18.976562 4.46875 -17.90625 C 4.46875 -16.84375 4.945312 -15.914062 5.90625 -15.125 L 13.359375 -9.375 C 14.484375 -8.4375 15.046875 -7.128906 15.046875 -5.453125 C 15.046875 -3.785156 14.410156 -2.375 13.140625 -1.21875 C 11.878906 -0.0625 10.335938 0.515625 8.515625 0.515625 C 7.316406 0.515625 6.113281 0.363281 4.90625 0.0625 C 3.695312 -0.226562 2.773438 -0.65625 2.140625 -1.21875 Z M 2.140625 -1.21875 "/></g></g></g><g fill="#004aad" fill-opacity="1"><g transform="translate(152.290438, 246.267361)"><g/></g></g><g fill="#004aad" fill-opacity="1"><g transform="translate(161.510175, 246.267361)"><g><path d="M 2.25 -1.515625 C 2.175781 -1.859375 2.140625 -2.519531 2.140625 -3.5 C 2.140625 -4.488281 2.320312 -5.535156 2.6875 -6.640625 L 3.03125 -6.640625 C 3 -6.367188 2.984375 -6.097656 2.984375 -5.828125 C 2.984375 -4.328125 3.4375 -3.078125 4.34375 -2.078125 C 5.257812 -1.085938 6.46875 -0.59375 7.96875 -0.59375 C 9.519531 -0.59375 10.789062 -1.054688 11.78125 -1.984375 C 12.78125 -2.921875 13.28125 -4.097656 13.28125 -5.515625 C 13.28125 -6.929688 12.800781 -8.082031 11.84375 -8.96875 L 4.765625 -15.53125 C 3.429688 -16.757812 2.765625 -18.242188 2.765625 -19.984375 C 2.765625 -21.734375 3.347656 -23.226562 4.515625 -24.46875 C 5.679688 -25.71875 7.265625 -26.34375 9.265625 -26.34375 C 10.191406 -26.34375 11.25 -26.21875 12.4375 -25.96875 L 13.875 -25.96875 L 13.875 -21.4375 L 13.53125 -21.4375 C 13.53125 -22.59375 13.128906 -23.515625 12.328125 -24.203125 C 11.535156 -24.890625 10.507812 -25.234375 9.25 -25.234375 C 8 -25.234375 6.945312 -24.8125 6.09375 -23.96875 C 5.25 -23.132812 4.828125 -22.09375 4.828125 -20.84375 C 4.828125 -19.59375 5.320312 -18.507812 6.3125 -17.59375 L 13.578125 -10.875 C 14.804688 -9.75 15.421875 -8.203125 15.421875 -6.234375 C 15.421875 -4.265625 14.789062 -2.644531 13.53125 -1.375 C 12.28125 -0.113281 10.609375 0.515625 8.515625 0.515625 C 7.441406 0.515625 6.296875 0.347656 5.078125 0.015625 C 3.859375 -0.316406 2.914062 -0.828125 2.25 -1.515625 Z M 2.25 -1.515625 "/></g></g></g><g fill="#004aad" fill-opacity="1"><g transform="translate(179.027668, 246.267361)"><g><path d="M 2.546875 -0.375 C 3.210938 -0.375 3.789062 -0.566406 4.28125 -0.953125 C 4.769531 -1.347656 5.015625 -1.816406 5.015625 -2.359375 L 5.015625 -19.765625 C 5.015625 -20.304688 4.769531 -20.773438 4.28125 -21.171875 C 3.789062 -21.566406 3.203125 -21.765625 2.515625 -21.765625 L 2.03125 -21.765625 L 2.03125 -22.140625 L 10.359375 -22.140625 L 10.359375 -21.765625 L 9.890625 -21.765625 C 9.222656 -21.765625 8.648438 -21.578125 8.171875 -21.203125 C 7.691406 -20.835938 7.425781 -20.382812 7.375 -19.84375 L 7.375 -2.328125 C 7.40625 -1.785156 7.664062 -1.320312 8.15625 -0.9375 C 8.644531 -0.5625 9.222656 -0.375 9.890625 -0.375 L 10.359375 -0.375 L 10.40625 0 L 2.03125 0 L 2.03125 -0.375 Z M 2.546875 -0.375 "/></g></g></g><g fill="#004aad" fill-opacity="1"><g transform="translate(191.418998, 246.267361)"><g><path d="M 13.9375 0.515625 C 10.28125 0.492188 7.347656 -0.550781 5.140625 -2.625 C 2.941406 -4.707031 1.84375 -7.523438 1.84375 -11.078125 C 1.84375 -14.640625 2.941406 -17.457031 5.140625 -19.53125 C 7.347656 -21.613281 10.191406 -22.65625 13.671875 -22.65625 C 17.148438 -22.65625 20.109375 -21.914062 22.546875 -20.4375 L 23.359375 -15.203125 L 23.015625 -15.203125 C 22.503906 -17.359375 21.503906 -18.953125 20.015625 -19.984375 C 18.523438 -21.023438 16.421875 -21.546875 13.703125 -21.546875 C 10.984375 -21.546875 8.769531 -20.601562 7.0625 -18.71875 C 5.351562 -16.84375 4.5 -14.289062 4.5 -11.0625 C 4.5 -7.84375 5.359375 -5.289062 7.078125 -3.40625 C 8.804688 -1.53125 11.1875 -0.59375 14.21875 -0.59375 C 17.257812 -0.59375 19.875 -1.660156 22.0625 -3.796875 L 22.09375 -8.703125 C 22.125 -9.148438 21.984375 -9.5 21.671875 -9.75 C 21.367188 -10.007812 20.945312 -10.140625 20.40625 -10.140625 L 19.890625 -10.140625 L 19.890625 -10.515625 L 26.640625 -10.515625 L 26.640625 -10.140625 L 26.125 -10.140625 C 25.007812 -10.140625 24.453125 -9.648438 24.453125 -8.671875 L 24.453125 -4.25 C 23.421875 -2.96875 22 -1.851562 20.1875 -0.90625 C 18.382812 0.0390625 16.300781 0.515625 13.9375 0.515625 Z M 13.9375 0.515625 "/></g></g></g><g fill="#004aad" fill-opacity="1"><g transform="translate(218.78317, 246.267361)"><g><path d="M 26.8125 -21.765625 C 26.269531 -21.765625 25.800781 -21.585938 25.40625 -21.234375 C 25.019531 -20.878906 24.816406 -20.441406 24.796875 -19.921875 L 24.796875 -4.203125 C 24.796875 -2.773438 24.878906 -1.421875 25.046875 -0.140625 L 25.125 0.515625 L 24.796875 0.515625 L 5.609375 -17.671875 L 5.609375 -2.28125 C 5.609375 -1.738281 5.800781 -1.285156 6.1875 -0.921875 C 6.582031 -0.554688 7.066406 -0.375 7.640625 -0.375 L 8.265625 -0.375 L 8.265625 0 L 1.296875 0 L 1.296875 -0.375 L 1.921875 -0.375 C 2.484375 -0.375 2.960938 -0.554688 3.359375 -0.921875 C 3.753906 -1.285156 3.953125 -1.738281 3.953125 -2.28125 L 3.953125 -18.078125 C 3.953125 -19.578125 3.863281 -20.914062 3.6875 -22.09375 L 3.609375 -22.6875 L 4.015625 -22.65625 L 23.171875 -4.609375 L 23.171875 -19.921875 C 23.117188 -20.441406 22.894531 -20.878906 22.5 -21.234375 C 22.101562 -21.585938 21.632812 -21.765625 21.09375 -21.765625 L 20.46875 -21.765625 L 20.46875 -22.140625 L 27.453125 -22.140625 L 27.453125 -21.765625 Z M 26.8125 -21.765625 "/></g></g></g><g fill="#004aad" fill-opacity="1"><g transform="translate(247.511867, 246.267361)"><g><path d="M 24.34375 -0.375 L 24.640625 -0.375 L 24.640625 0 L 17.078125 0 L 17.078125 -0.375 L 17.375 -0.375 C 17.84375 -0.375 18.195312 -0.53125 18.4375 -0.84375 C 18.6875 -1.164062 18.8125 -1.46875 18.8125 -1.75 C 18.8125 -2.03125 18.765625 -2.304688 18.671875 -2.578125 L 16.640625 -7.484375 L 7.296875 -7.484375 L 5.28125 -2.6875 C 5.15625 -2.375 5.09375 -2.070312 5.09375 -1.78125 C 5.09375 -1.5 5.210938 -1.191406 5.453125 -0.859375 C 5.703125 -0.535156 6.070312 -0.375 6.5625 -0.375 L 6.859375 -0.375 L 6.859375 0 L -0.1875 0 L -0.1875 -0.375 L 0.109375 -0.375 C 0.628906 -0.375 1.148438 -0.550781 1.671875 -0.90625 C 2.203125 -1.257812 2.640625 -1.796875 2.984375 -2.515625 C 8.367188 -14.015625 11.175781 -20.035156 11.40625 -20.578125 C 11.820312 -21.617188 12.039062 -22.3125 12.0625 -22.65625 L 12.390625 -22.65625 L 21.5 -2.515625 C 22.21875 -1.085938 23.164062 -0.375 24.34375 -0.375 Z M 7.78125 -8.59375 L 16.1875 -8.59375 L 12.0625 -18.703125 Z M 7.78125 -8.59375 "/></g></g></g><g fill="#004aad" fill-opacity="1"><g transform="translate(271.962603, 246.267361)"><g><path d="M 11.875 -21.0625 L 11.875 -2.328125 C 11.90625 -1.566406 12.273438 -1 12.984375 -0.625 C 13.304688 -0.457031 13.664062 -0.375 14.0625 -0.375 L 14.46875 -0.375 L 14.46875 0 L 6.859375 0 L 6.859375 -0.375 L 7.296875 -0.375 C 7.890625 -0.375 8.394531 -0.566406 8.8125 -0.953125 C 9.226562 -1.347656 9.453125 -1.816406 9.484375 -2.359375 L 9.484375 -21.0625 L 2.796875 -21.0625 C 2.234375 -21.0625 1.785156 -20.875 1.453125 -20.5 C 1.117188 -20.132812 0.953125 -19.695312 0.953125 -19.1875 L 0.953125 -18.59375 L 0.546875 -18.59375 L 0.546875 -22.765625 C 1.046875 -22.566406 1.742188 -22.414062 2.640625 -22.3125 C 3.535156 -22.21875 4.203125 -22.171875 4.640625 -22.171875 L 16.671875 -22.171875 C 18.441406 -22.171875 19.820312 -22.367188 20.8125 -22.765625 L 20.8125 -18.59375 L 20.40625 -18.59375 L 20.40625 -19.1875 C 20.40625 -19.695312 20.234375 -20.132812 19.890625 -20.5 C 19.546875 -20.875 19.101562 -21.0625 18.5625 -21.0625 Z M 11.875 -21.0625 "/></g></g></g><g fill="#004aad" fill-opacity="1"><g transform="translate(293.278642, 246.267361)"><g><path d="M 24.53125 -21.765625 L 23.984375 -21.765625 C 23.316406 -21.765625 22.8125 -21.503906 22.46875 -20.984375 C 22.320312 -20.765625 22.234375 -20.507812 22.203125 -20.21875 L 22.203125 -7.78125 C 22.203125 -5.226562 21.382812 -3.207031 19.75 -1.71875 C 18.113281 -0.226562 15.867188 0.515625 13.015625 0.515625 C 10.171875 0.515625 7.921875 -0.21875 6.265625 -1.6875 C 4.617188 -3.164062 3.796875 -5.1875 3.796875 -7.75 L 3.796875 -20.171875 C 3.796875 -20.617188 3.625 -20.992188 3.28125 -21.296875 C 2.9375 -21.609375 2.519531 -21.765625 2.03125 -21.765625 L 1.46875 -21.765625 L 1.46875 -22.140625 L 8.484375 -22.140625 L 8.484375 -21.765625 L 7.9375 -21.765625 C 7.4375 -21.765625 7.015625 -21.609375 6.671875 -21.296875 C 6.328125 -20.992188 6.15625 -20.617188 6.15625 -20.171875 L 6.15625 -8.1875 C 6.15625 -5.800781 6.765625 -3.921875 7.984375 -2.546875 C 9.203125 -1.171875 10.921875 -0.484375 13.140625 -0.484375 C 15.367188 -0.484375 17.15625 -1.132812 18.5 -2.4375 C 19.84375 -3.738281 20.515625 -5.519531 20.515625 -7.78125 L 20.515625 -20.171875 C 20.484375 -20.640625 20.300781 -21.019531 19.96875 -21.3125 C 19.644531 -21.613281 19.234375 -21.765625 18.734375 -21.765625 L 18.1875 -21.765625 L 18.1875 -22.140625 L 24.53125 -22.140625 Z M 24.53125 -21.765625 "/></g></g></g><g fill="#004aad" fill-opacity="1"><g transform="translate(319.093902, 246.267361)"><g><path d="M 8.921875 -20.984375 L 6.96875 -20.984375 L 6.96875 -2.359375 C 7 -1.597656 7.34375 -1.019531 8 -0.625 C 8.320312 -0.457031 8.679688 -0.375 9.078125 -0.375 L 9.546875 -0.375 L 9.59375 0 L 2.03125 0 L 2.03125 -0.375 L 2.546875 -0.375 C 3.109375 -0.375 3.59375 -0.5625 4 -0.9375 C 4.40625 -1.320312 4.609375 -1.785156 4.609375 -2.328125 L 4.609375 -19.84375 C 4.609375 -20.382812 4.40625 -20.835938 4 -21.203125 C 3.59375 -21.578125 3.109375 -21.765625 2.546875 -21.765625 L 2.03125 -21.765625 L 2.03125 -22.140625 L 11.28125 -22.140625 C 13.59375 -22.140625 15.421875 -21.609375 16.765625 -20.546875 C 18.109375 -19.492188 18.78125 -18.101562 18.78125 -16.375 C 18.78125 -14.65625 18.238281 -13.21875 17.15625 -12.0625 C 16.070312 -10.90625 14.691406 -10.242188 13.015625 -10.078125 C 13.804688 -9.722656 14.753906 -8.757812 15.859375 -7.1875 C 15.835938 -7.1875 16.257812 -6.644531 17.125 -5.5625 C 18 -4.488281 18.703125 -3.648438 19.234375 -3.046875 C 19.765625 -2.441406 20.203125 -1.976562 20.546875 -1.65625 C 21.453125 -0.800781 22.5 -0.375 23.6875 -0.375 L 23.6875 0 L 22.546875 0 C 20.597656 0 19.070312 -0.378906 17.96875 -1.140625 C 17.132812 -1.703125 16.367188 -2.40625 15.671875 -3.25 C 15.523438 -3.445312 14.90625 -4.3125 13.8125 -5.84375 C 12.71875 -7.382812 12.132812 -8.203125 12.0625 -8.296875 C 10.738281 -9.941406 9.5 -10.765625 8.34375 -10.765625 L 8.34375 -11.140625 C 11.21875 -11.140625 12.945312 -11.285156 13.53125 -11.578125 C 14.34375 -11.992188 14.898438 -12.4375 15.203125 -12.90625 C 15.816406 -13.894531 16.125 -14.976562 16.125 -16.15625 C 16.125 -17.65625 15.679688 -18.8125 14.796875 -19.625 C 13.910156 -20.4375 12.71875 -20.878906 11.21875 -20.953125 C 10.550781 -20.972656 9.785156 -20.984375 8.921875 -20.984375 Z M 8.921875 -20.984375 "/></g></g></g><g fill="#004aad" fill-opacity="1"><g transform="translate(342.217009, 246.267361)"><g><path d="M 2.546875 -0.375 C 3.140625 -0.375 3.632812 -0.5625 4.03125 -0.9375 C 4.4375 -1.320312 4.65625 -1.785156 4.6875 -2.328125 L 4.6875 -19.84375 C 4.6875 -20.382812 4.476562 -20.835938 4.0625 -21.203125 C 3.644531 -21.578125 3.140625 -21.765625 2.546875 -21.765625 L 2.03125 -21.765625 L 2.03125 -22.140625 L 12.796875 -22.140625 C 13.804688 -22.140625 14.691406 -22.210938 15.453125 -22.359375 C 16.210938 -22.503906 16.707031 -22.625 16.9375 -22.71875 L 16.9375 -18.515625 L 16.53125 -18.5625 L 16.53125 -19.109375 C 16.53125 -19.628906 16.359375 -20.070312 16.015625 -20.4375 C 15.671875 -20.800781 15.226562 -20.984375 14.6875 -20.984375 L 7.015625 -20.984375 L 7.015625 -11.625 L 13.3125 -11.625 C 13.8125 -11.625 14.1875 -11.769531 14.4375 -12.0625 C 14.695312 -12.351562 14.828125 -12.722656 14.828125 -13.171875 L 14.828125 -13.65625 L 15.234375 -13.65625 L 15.234375 -8.484375 L 14.828125 -8.484375 L 14.828125 -8.96875 C 14.828125 -9.65625 14.570312 -10.117188 14.0625 -10.359375 C 13.863281 -10.441406 13.648438 -10.492188 13.421875 -10.515625 L 7.015625 -10.515625 L 7.015625 -1.140625 L 12.796875 -1.140625 C 13.929688 -1.140625 14.882812 -1.335938 15.65625 -1.734375 C 16.4375 -2.128906 17.03125 -2.597656 17.4375 -3.140625 C 17.84375 -3.679688 18.253906 -4.394531 18.671875 -5.28125 L 19.03125 -5.28125 L 17 0 L 2.03125 0 L 2.03125 -0.375 Z M 2.546875 -0.375 "/></g></g></g><g fill="#004aad" fill-opacity="1"><g transform="translate(362.355453, 246.267361)"><g/></g></g></svg>